<svg width="75" height="21" viewBox="0 0 75 21" fill="none" xmlns="http://www.w3.org/2000/svg">
<path d="M56 10.5C55.7239 10.5 55.5 10.7239 55.5 11C55.5 11.2761 55.7239 11.5 56 11.5L56 10.5ZM74.3536 11.3536C74.5488 11.1583 74.5488 10.8417 74.3536 10.6464L71.1716 7.46446C70.9763 7.2692 70.6597 7.2692 70.4645 7.46446C70.2692 7.65973 70.2692 7.97631 70.4645 8.17157L73.2929 11L70.4645 13.8284C70.2692 14.0237 70.2692 14.3403 70.4645 14.5355C70.6597 14.7308 70.9763 14.7308 71.1716 14.5355L74.3536 11.3536ZM56 11.5L74 11.5L74 10.5L56 10.5L56 11.5Z" fill="white"/>
<path d="M19 11.5C19.2761 11.5 19.5 11.2761 19.5 11C19.5 10.7239 19.2761 10.5 19 10.5L19 11.5ZM0.646446 10.6464C0.451185 10.8417 0.451185 11.1583 0.646446 11.3536L3.82843 14.5355C4.02369 14.7308 4.34027 14.7308 4.53553 14.5355C4.7308 14.3403 4.7308 14.0237 4.53553 13.8284L1.70711 11L4.53553 8.17157C4.7308 7.97631 4.7308 7.65973 4.53553 7.46446C4.34027 7.2692 4.02369 7.2692 3.82843 7.46446L0.646446 10.6464ZM19 10.5L1 10.5L1 11.5L19 11.5L19 10.5Z" fill="white"/>
<path d="M35.63 6.25V4.794H38.542V15H36.932V6.25H35.63Z" fill="white"/>
</svg>
